<svg width="31" height="31" viewBox="0 0 31 31" fill="none" xmlns="http://www.w3.org/2000/svg">
<g clip-path="url(#clip0_272_19)">
<path d="M0.982544 20.8101C3.13969 26.625 8.7357 30.7687 15.3013 30.7687C21.8669 30.7687 27.4629 26.625 29.62 20.8101L15.3013 19.4834L0.982544 20.8101Z" fill="#FFDA44"/>
<path d="M15.3013 0.231201C8.7357 0.231201 3.13969 4.37498 0.982544 10.1899L15.3013 11.5165L29.62 10.189C27.4629 4.37498 21.8669 0.231201 15.3013 0.231201Z" fill="#3D3D3D"/>
<path d="M0.982538 10.1898C0.352501 11.8892 0.0307725 13.6875 0.0324783 15.5C0.0306716 17.3127 0.352402 19.1113 0.982538 20.811H29.62C30.2502 19.1113 30.5719 17.3127 30.5701 15.5C30.5719 13.6872 30.2502 11.8887 29.62 10.189L0.982538 10.1898Z" fill="#D80027"/>
</g>
<defs>
<clipPath id="clip0_272_19">
<rect width="30.5376" height="30.5376" fill="white" transform="translate(0.0324707 0.231201)"/>
</clipPath>
</defs>
</svg>
