<svg height="300" viewBox="0 0 64 64" width="300" xmlns="http://www.w3.org/2000/svg" version="1.1" xmlns:xlink="http://www.w3.org/1999/xlink" xmlns:svgjs="http://svgjs.dev/svgjs"><g width="100%" height="100%" transform="matrix(1,0,0,1,0,0)"><g id="Layer_9" data-name="Layer 9"><rect fill="#48d2cc" height="63" rx="9.5" width="63" x=".5" y=".5" fill-opacity="1" data-original-color="#da0037ff" stroke="none" stroke-opacity="1"/><path d="m54 1a9.01 9.01 0 0 1 9 9v44a9.01 9.01 0 0 1 -9 9h-44a9.01 9.01 0 0 1 -9-9v-44a9.01 9.01 0 0 1 9-9zm0-1h-44a10 10 0 0 0 -10 10v44a10 10 0 0 0 10 10h44a10 10 0 0 0 10-10v-44a10 10 0 0 0 -10-10z" fill="#000000" fill-opacity="1" data-original-color="#000000ff" stroke="none" stroke-opacity="1"/><circle cx="14" cy="14" fill="#f4eee9" r="5.5" fill-opacity="1" data-original-color="#f4eee9ff" stroke="none" stroke-opacity="1"/><path d="m14 9a5 5 0 1 1 -5 5 5.006 5.006 0 0 1 5-5m0-1a6 6 0 1 0 6 6 6 6 0 0 0 -6-6z" fill="#000000" fill-opacity="1" data-original-color="#000000ff" stroke="none" stroke-opacity="1"/><circle cx="50" cy="50" fill="#f4eee9" r="5.5" fill-opacity="1" data-original-color="#f4eee9ff" stroke="none" stroke-opacity="1"/><path d="m50 45a5 5 0 1 1 -5 5 5.006 5.006 0 0 1 5-5m0-1a6 6 0 1 0 6 6 6 6 0 0 0 -6-6z" fill="#000000" fill-opacity="1" data-original-color="#000000ff" stroke="none" stroke-opacity="1"/><circle cx="32" cy="32" fill="#f4eee9" r="5.5" fill-opacity="1" data-original-color="#f4eee9ff" stroke="none" stroke-opacity="1"/><path d="m32 27a5 5 0 1 1 -5 5 5.006 5.006 0 0 1 5-5m0-1a6 6 0 1 0 6 6 6 6 0 0 0 -6-6z" fill="#000000" fill-opacity="1" data-original-color="#000000ff" stroke="none" stroke-opacity="1"/><circle cx="14" cy="50" fill="#f4eee9" r="5.5" fill-opacity="1" data-original-color="#f4eee9ff" stroke="none" stroke-opacity="1"/><path d="m14 45a5 5 0 1 1 -5 5 5.006 5.006 0 0 1 5-5m0-1a6 6 0 1 0 6 6 6 6 0 0 0 -6-6z" fill="#000000" fill-opacity="1" data-original-color="#000000ff" stroke="none" stroke-opacity="1"/><circle cx="50" cy="14" fill="#f4eee9" r="5.5" fill-opacity="1" data-original-color="#f4eee9ff" stroke="none" stroke-opacity="1"/><path d="m50 9a5 5 0 1 1 -5 5 5.006 5.006 0 0 1 5-5m0-1a6 6 0 1 0 6 6 6 6 0 0 0 -6-6z" fill="#000000" fill-opacity="1" data-original-color="#000000ff" stroke="none" stroke-opacity="1"/><g opacity=".2"><path d="m10 63.5a9.511 9.511 0 0 1 -9.5-9.5v-5.874a28.246 28.246 0 0 0 23.5 12.374h10a26.53 26.53 0 0 0 26.5-26.5v-10a28.66 28.66 0 0 0 -12.379-23.5h5.879a9.511 9.511 0 0 1 9.5 9.5v44a9.511 9.511 0 0 1 -9.5 9.5z" fill="#000000" fill-opacity="1" data-original-color="#000000ff" stroke="none" stroke-opacity="1"/><path d="m54 1a9.01 9.01 0 0 1 9 9v44a9.01 9.01 0 0 1 -9 9h-44a9.01 9.01 0 0 1 -9-9v-4.343a29.168 29.168 0 0 0 23 11.343h10a27.03 27.03 0 0 0 27-27v-10a29.168 29.168 0 0 0 -11.343-23zm0-1h-7.58a27.957 27.957 0 0 1 13.58 24v10a26 26 0 0 1 -26 26h-10a27.957 27.957 0 0 1 -24-13.58v7.58a10 10 0 0 0 10 10h44a10 10 0 0 0 10-10v-44a10 10 0 0 0 -10-10z" fill="#000000" fill-opacity="1" data-original-color="#000000ff" stroke="none" stroke-opacity="1"/></g></g></g></svg>