<svg width="12" height="15" viewBox="0 0 12 15" fill="none" xmlns="http://www.w3.org/2000/svg">
<mask id="mask0_231_2515" style="mask-type:luminance" maskUnits="userSpaceOnUse" x="0" y="0" width="12" height="15">
<path d="M11.88 0.756714H0.119995V14.7567H11.88V0.756714Z" fill="white"/>
</mask>
<g mask="url(#mask0_231_2515)">
<path d="M11.1969 3.49479C9.70169 3.38839 8.32969 2.47558 6.99686 1.5852C6.76167 1.42838 6.53209 1.27717 6.30247 1.126C6.10088 0.997172 5.83766 1.00838 5.65289 1.15959C4.28088 2.24039 2.63448 3.36599 0.803266 3.49479C0.51209 3.51717 0.282471 3.758 0.282471 4.05479V5.74599C0.282471 9.43078 2.43289 12.8356 5.75929 14.4204C5.83209 14.4596 5.91607 14.4764 6.00009 14.4764C6.08406 14.4764 6.16247 14.4596 6.24088 14.4204C9.56729 12.8356 11.7177 9.43078 11.7177 5.74599V4.05479C11.7177 3.758 11.4881 3.51717 11.1969 3.49479ZM8.20074 6.98576L6.00312 9.18364C5.78483 9.40197 5.43031 9.4027 5.21125 9.18364L4.22114 8.19355C4.00238 7.97479 4.00238 7.62041 4.22114 7.40166C4.43988 7.18291 4.79426 7.18291 5.01301 7.40166L5.60719 7.99584L7.40887 6.19388C7.62762 5.97514 7.98197 5.97514 8.20074 6.19388C8.41951 6.41264 8.41951 6.76701 8.20074 6.98576Z" fill="#0ED92E"/>
</g>
</svg>
