<svg width="102" height="18" viewBox="0 0 102 18" fill="none" xmlns="http://www.w3.org/2000/svg">
<path d="M8.73159 0.81058C8.88127 0.349924 9.53297 0.349924 9.68265 0.810579L11.4523 6.25688C11.5192 6.46289 11.7112 6.60238 11.9278 6.60238H17.6544C18.1387 6.60238 18.3401 7.22218 17.9483 7.50688L13.3154 10.8729C13.1401 11.0002 13.0668 11.2259 13.1337 11.4319L14.9033 16.8782C15.053 17.3389 14.5258 17.7219 14.1339 17.4372L9.50101 14.0712C9.32577 13.9439 9.08847 13.9439 8.91323 14.0712L4.28033 17.4372C3.88847 17.7219 3.36123 17.3389 3.5109 16.8782L5.28052 11.4319C5.34745 11.2259 5.27412 11.0002 5.09888 10.8729L0.465977 7.50688C0.0741203 7.22218 0.275507 6.60238 0.759869 6.60238H6.48645C6.70307 6.60238 6.89504 6.46289 6.96198 6.25688L8.73159 0.81058Z" fill="#DEB34B"/>
<path d="M29.628 0.81058C29.7776 0.349924 30.4293 0.349924 30.579 0.810579L32.3486 6.25688C32.4156 6.46289 32.6075 6.60238 32.8242 6.60238H38.5507C39.0351 6.60238 39.2365 7.22218 38.8446 7.50688L34.2117 10.8729C34.0365 11.0002 33.9632 11.2259 34.0301 11.4319L35.7997 16.8782C35.9494 17.3389 35.4221 17.7219 35.0303 17.4372L30.3974 14.0712C30.2221 13.9439 29.9848 13.9439 29.8096 14.0712L25.1767 17.4372C24.7848 17.7219 24.2576 17.3389 24.4073 16.8782L26.1769 11.4319C26.2438 11.2259 26.1705 11.0002 25.9952 10.8729L21.3623 7.50688C20.9705 7.22218 21.1719 6.60238 21.6562 6.60238H27.3828C27.5994 6.60238 27.7914 6.46289 27.8583 6.25688L29.628 0.81058Z" fill="#DEB34B"/>
<path d="M50.5244 0.81058C50.6741 0.349924 51.3258 0.349924 51.4755 0.810579L53.2451 6.25688C53.312 6.46289 53.504 6.60238 53.7206 6.60238H59.4472C59.9316 6.60238 60.133 7.22218 59.7411 7.50688L55.1082 10.8729C54.933 11.0002 54.8596 11.2259 54.9266 11.4319L56.6962 16.8782C56.8459 17.3389 56.3186 17.7219 55.9268 17.4372L51.2939 14.0712C51.1186 13.9439 50.8813 13.9439 50.7061 14.0712L46.0732 17.4372C45.6813 17.7219 45.1541 17.3389 45.3038 16.8782L47.0734 11.4319C47.1403 11.2259 47.067 11.0002 46.8917 10.8729L42.2588 7.50688C41.867 7.22218 42.0684 6.60238 42.5527 6.60238H48.2793C48.4959 6.60238 48.6879 6.46289 48.7548 6.25688L50.5244 0.81058Z" fill="#DEB34B"/>
<path d="M71.4208 0.81058C71.5705 0.349924 72.2222 0.349924 72.3719 0.810579L74.1415 6.25688C74.2084 6.46289 74.4004 6.60238 74.617 6.60238H80.3436C80.8279 6.60238 81.0293 7.22218 80.6375 7.50688L76.0046 10.8729C75.8293 11.0002 75.756 11.2259 75.8229 11.4319L77.5925 16.8782C77.7422 17.3389 77.215 17.7219 76.8231 17.4372L72.1902 14.0712C72.015 13.9439 71.7777 13.9439 71.6024 14.0712L66.9695 17.4372C66.5777 17.7219 66.0504 17.3389 66.2001 16.8782L67.9697 11.4319C68.0367 11.2259 67.9633 11.0002 67.7881 10.8729L63.1552 7.50688C62.7633 7.22218 62.9647 6.60238 63.4491 6.60238H69.1757C69.3923 6.60238 69.5843 6.46289 69.6512 6.25688L71.4208 0.81058Z" fill="#DEB34B"/>
<path d="M92.3173 0.81058C92.467 0.349924 93.1187 0.349924 93.2683 0.810579L95.038 6.25688C95.1049 6.46289 95.2969 6.60238 95.5135 6.60238H101.24C101.724 6.60238 101.926 7.22218 101.534 7.50688L96.9011 10.8729C96.7258 11.0002 96.6525 11.2259 96.7194 11.4319L98.489 16.8782C98.6387 17.3389 98.1115 17.7219 97.7196 17.4372L93.0867 14.0712C92.9115 13.9439 92.6742 13.9439 92.4989 14.0712L87.866 17.4372C87.4742 17.7219 86.9469 17.3389 87.0966 16.8782L88.8662 11.4319C88.9331 11.2259 88.8598 11.0002 88.6846 10.8729L84.0517 7.50688C83.6598 7.22218 83.8612 6.60238 84.3456 6.60238H90.0721C90.2888 6.60238 90.4807 6.46289 90.5477 6.25688L92.3173 0.81058Z" fill="#64696F"/>
<path d="M87.866 17.4372L92.4989 14.0712C92.5769 14.0145 92.6672 13.9831 92.7589 13.9769V0.466187C92.5703 0.478454 92.3879 0.593251 92.3173 0.810578L90.5477 6.25688C90.4807 6.46289 90.2888 6.60237 90.0721 6.60237H84.3456C83.8612 6.60237 83.6598 7.22218 84.0517 7.50688L88.6846 10.8729C88.8598 11.0002 88.9331 11.2259 88.8662 11.4319L87.0966 16.8782C86.9469 17.3389 87.4742 17.7219 87.866 17.4372Z" fill="#DEB34B"/>
</svg>
