<svg width="111" height="14" viewBox="0 0 111 14" fill="none" xmlns="http://www.w3.org/2000/svg">
<path d="M102.743 0.41459C102.923 -0.138196 103.705 -0.138197 103.885 0.414589L105.2 4.46261C105.28 4.70983 105.511 4.8772 105.771 4.8772H110.027C110.608 4.8772 110.85 5.62097 110.38 5.96262L106.936 8.46443C106.726 8.61722 106.638 8.88804 106.718 9.13525L108.033 13.1832C108.213 13.736 107.58 14.1957 107.11 13.8541L103.667 11.3522C103.456 11.1995 103.172 11.1995 102.961 11.3522L99.5179 13.8541C99.0477 14.1957 98.415 13.736 98.5946 13.1832L99.9099 9.13525C99.9902 8.88804 99.9022 8.61722 99.6919 8.46443L96.2485 5.96262C95.7783 5.62097 96.0199 4.8772 96.6011 4.8772H100.857C101.117 4.8772 101.348 4.70983 101.428 4.46262L102.743 0.41459Z" fill="url(#paint0_linear_2001_191)"/>
<path d="M54.7434 0.41459C54.923 -0.138196 55.7051 -0.138197 55.8847 0.414589L57.2 4.46261C57.2803 4.70983 57.5106 4.8772 57.7706 4.8772H62.0269C62.6081 4.8772 62.8498 5.62097 62.3796 5.96262L58.9361 8.46443C58.7258 8.61722 58.6378 8.88804 58.7182 9.13525L60.0334 13.1832C60.213 13.736 59.5804 14.1957 59.1101 13.8541L55.6667 11.3522C55.4564 11.1995 55.1717 11.1995 54.9614 11.3522L51.5179 13.8541C51.0477 14.1957 50.415 13.736 50.5946 13.1832L51.9099 9.13525C51.9902 8.88804 51.9022 8.61722 51.6919 8.46443L48.2485 5.96262C47.7783 5.62097 48.0199 4.8772 48.6011 4.8772H52.8575C53.1174 4.8772 53.3478 4.70983 53.4281 4.46262L54.7434 0.41459Z" fill="url(#paint1_linear_2001_191)"/>
<path d="M30.7434 0.41459C30.923 -0.138196 31.7051 -0.138197 31.8847 0.414589L33.2 4.46261C33.2803 4.70983 33.5106 4.8772 33.7706 4.8772H38.0269C38.6081 4.8772 38.8498 5.62097 38.3796 5.96262L34.9361 8.46443C34.7258 8.61722 34.6378 8.88804 34.7182 9.13525L36.0334 13.1832C36.213 13.736 35.5804 14.1957 35.1101 13.8541L31.6667 11.3522C31.4564 11.1995 31.1717 11.1995 30.9614 11.3522L27.5179 13.8541C27.0477 14.1957 26.415 13.736 26.5946 13.1832L27.9099 9.13525C27.9902 8.88804 27.9022 8.61722 27.6919 8.46443L24.2485 5.96262C23.7783 5.62097 24.0199 4.8772 24.6011 4.8772H28.8575C29.1174 4.8772 29.3478 4.70983 29.4281 4.46262L30.7434 0.41459Z" fill="url(#paint2_linear_2001_191)"/>
<path d="M6.74342 0.41459C6.92303 -0.138196 7.70507 -0.138197 7.88468 0.414589L9.19997 4.46261C9.28029 4.70983 9.51065 4.8772 9.77065 4.8772H14.0269C14.6081 4.8772 14.8498 5.62097 14.3796 5.96262L10.9361 8.46443C10.7258 8.61722 10.6378 8.88804 10.7182 9.13525L12.0334 13.1832C12.213 13.736 11.5804 14.1957 11.1101 13.8541L7.66672 11.3522C7.45643 11.1995 7.17167 11.1995 6.96138 11.3522L3.51792 13.8541C3.04769 14.1957 2.41501 13.736 2.59462 13.1832L3.9099 9.13525C3.99022 8.88804 3.90223 8.61722 3.69194 8.46443L0.248479 5.96262C-0.221749 5.62097 0.0199159 4.8772 0.601148 4.8772H4.8575C5.11743 4.8772 5.34781 4.70983 5.42813 4.46262L6.74342 0.41459Z" fill="url(#paint3_linear_2001_191)"/>
<path d="M78.7434 0.41459C78.923 -0.138196 79.7051 -0.138197 79.8847 0.414589L81.2 4.46261C81.2803 4.70983 81.5106 4.8772 81.7706 4.8772H86.0269C86.6081 4.8772 86.8498 5.62097 86.3796 5.96262L82.9361 8.46443C82.7258 8.61722 82.6378 8.88804 82.7182 9.13525L84.0334 13.1832C84.213 13.736 83.5804 14.1957 83.1101 13.8541L79.6667 11.3522C79.4564 11.1995 79.1717 11.1995 78.9614 11.3522L75.5179 13.8541C75.0477 14.1957 74.415 13.736 74.5946 13.1832L75.9099 9.13525C75.9902 8.88804 75.9022 8.61722 75.6919 8.46443L72.2485 5.96262C71.7783 5.62097 72.0199 4.8772 72.6011 4.8772H76.8575C77.1174 4.8772 77.3478 4.70983 77.4281 4.46262L78.7434 0.41459Z" fill="url(#paint4_linear_2001_191)"/>
<defs>
<linearGradient id="paint0_linear_2001_191" x1="103.314" y1="-1.34164" x2="103.314" y2="16.6583" gradientUnits="userSpaceOnUse">
<stop stop-color="#FFF500"/>
<stop offset="1" stop-color="#FFA800"/>
</linearGradient>
<linearGradient id="paint1_linear_2001_191" x1="55.314" y1="-1.34164" x2="55.314" y2="16.6583" gradientUnits="userSpaceOnUse">
<stop stop-color="#FFF500"/>
<stop offset="1" stop-color="#FFA800"/>
</linearGradient>
<linearGradient id="paint2_linear_2001_191" x1="31.314" y1="-1.34164" x2="31.314" y2="16.6583" gradientUnits="userSpaceOnUse">
<stop stop-color="#FFF500"/>
<stop offset="1" stop-color="#FFA800"/>
</linearGradient>
<linearGradient id="paint3_linear_2001_191" x1="7.31405" y1="-1.34164" x2="7.31405" y2="16.6583" gradientUnits="userSpaceOnUse">
<stop stop-color="#FFF500"/>
<stop offset="1" stop-color="#FFA800"/>
</linearGradient>
<linearGradient id="paint4_linear_2001_191" x1="79.314" y1="-1.34164" x2="79.314" y2="16.6583" gradientUnits="userSpaceOnUse">
<stop stop-color="#FFF500"/>
<stop offset="1" stop-color="#FFA800"/>
</linearGradient>
</defs>
</svg>
