<svg width="50" height="51" viewBox="0 0 50 51" fill="none" xmlns="http://www.w3.org/2000/svg">
<mask id="mask0_272_254" style="mask-type:luminance" maskUnits="userSpaceOnUse" x="0" y="0" width="50" height="51">
<path d="M50 0.5H0V50.5H50V0.5Z" fill="white"/>
</mask>
<g mask="url(#mask0_272_254)">
<path d="M19.3375 24.0156C19.827 23.2933 20.4495 22.6708 21.1719 22.1813L15.1562 7.65625C10.6576 9.86298 7.01923 13.5013 4.8125 18L19.3375 24.0156Z" fill="#00DEFF"/>
<path d="M46.2367 35.161C47.869 30.4194 47.869 25.2682 46.2367 20.5266L31.7117 26.5422C31.8773 27.401 31.8773 28.2835 31.7117 29.1422L46.2367 35.161Z" fill="#00DEFF"/>
<path d="M28.8281 22.1813C29.5505 22.6708 30.173 23.2933 30.6625 24.0156L45.1875 18C42.9808 13.5013 39.3424 9.86298 34.8437 7.65625L28.8281 22.1813Z" fill="#00DEFF"/>
<path d="M21.1719 33.5062C20.4495 33.0167 19.827 32.3942 19.3375 31.6719L4.8125 37.6875C7.01923 42.1862 10.6576 45.8245 15.1562 48.0312L21.1719 33.5062Z" fill="#00DEFF"/>
<path d="M18.2883 29.1437C18.1227 28.2849 18.1227 27.4025 18.2883 26.5437L3.76328 20.5281C2.13099 25.2697 2.13099 30.4209 3.76328 35.1625L18.2883 29.1437Z" fill="#00DEFF"/>
<path d="M30.6625 31.6719C30.173 32.3942 29.5505 33.0167 28.8281 33.5062L34.8437 48.0312C39.3424 45.8245 42.9808 42.1862 45.1875 37.6875L30.6625 31.6719Z" fill="#00DEFF"/>
<path d="M26.3 34.5554C25.4412 34.721 24.5587 34.721 23.7 34.5554L17.6843 49.0804C22.4259 50.7127 27.5771 50.7127 32.3187 49.0804L26.3 34.5554Z" fill="#00DEFF"/>
<path d="M25 23.7422C24.1888 23.7422 23.3958 23.9827 22.7213 24.4334C22.0468 24.8841 21.5211 25.5247 21.2107 26.2742C20.9002 27.0236 20.819 27.8483 20.9772 28.6439C21.1355 29.4395 21.5261 30.1704 22.0998 30.744C22.6734 31.3176 23.4042 31.7082 24.1998 31.8665C24.9955 32.0248 25.8201 31.9435 26.5696 31.6331C27.3191 31.3227 27.9596 30.797 28.4103 30.1225C28.861 29.448 29.1016 28.655 29.1016 27.8438C29.1003 26.7563 28.6678 25.7138 27.8989 24.9449C27.13 24.176 26.0874 23.7434 25 23.7422ZM25 29.2109C24.7296 29.2109 24.4653 29.1308 24.2404 28.9805C24.0156 28.8303 23.8404 28.6168 23.7369 28.367C23.6334 28.1171 23.6063 27.8422 23.6591 27.577C23.7118 27.3118 23.8421 27.0682 24.0333 26.877C24.2245 26.6858 24.4681 26.5556 24.7333 26.5028C24.9985 26.4501 25.2734 26.4772 25.5232 26.5806C25.773 26.6841 25.9865 26.8593 26.1368 27.0842C26.287 27.309 26.3672 27.5733 26.3672 27.8438C26.367 28.2063 26.2229 28.5539 25.9665 28.8103C25.7102 29.0666 25.3625 29.2107 25 29.2109Z" fill="#00DEFF"/>
<path d="M21.1993 2.58828L23.7383 8.68203C23.842 8.9313 24.0171 9.14429 24.2417 9.29412C24.4662 9.44395 24.7301 9.52391 25.0001 9.52391C25.27 9.52391 25.5339 9.44395 25.7585 9.29412C25.983 9.14429 26.1582 8.9313 26.2618 8.68203L28.8008 2.58828C28.8876 2.38055 28.9217 2.15461 28.9001 1.93054C28.8785 1.70646 28.8018 1.4912 28.677 1.30388C28.5521 1.11656 28.3829 0.962994 28.1844 0.856824C27.9859 0.750654 27.7642 0.695173 27.5391 0.695313H22.461C22.2359 0.695173 22.0142 0.750654 21.8157 0.856824C21.6172 0.962994 21.448 1.11656 21.3232 1.30388C21.1983 1.4912 21.1217 1.70646 21.1001 1.93054C21.0784 2.15461 21.1125 2.38055 21.1993 2.58828Z" fill="#00DEFF"/>
<path d="M30.3321 6.02271L28.786 9.73363C28.4745 10.481 27.9488 11.1195 27.2751 11.5686C26.6013 12.0177 25.8097 12.2574 25 12.2574C24.1904 12.2574 23.3988 12.0177 22.725 11.5686C22.0513 11.1195 21.5256 10.481 21.2141 9.73363L19.668 6.02271C18.9941 6.18781 18.3323 6.3826 17.6829 6.60708L23.6985 21.1321C24.5572 20.9665 25.4397 20.9665 26.2985 21.1321L32.3141 6.60708C31.6667 6.38312 31.006 6.18833 30.3321 6.02271Z" fill="#00DEFF"/>
</g>
</svg>
