<svg width="51" height="51" viewBox="0 0 51 51" fill="none" xmlns="http://www.w3.org/2000/svg">
<mask id="mask0_272_211" style="mask-type:luminance" maskUnits="userSpaceOnUse" x="0" y="0" width="51" height="51">
<path d="M50.5 0.5H0.5V50.5H50.5V0.5Z" fill="white"/>
</mask>
<g mask="url(#mask0_272_211)">
<path d="M46.4647 11.792L38.532 8.22607V34.5309L44.3717 21.8435H44.3975L47.6016 14.7893C48.0963 13.6471 47.5924 12.3187 46.4647 11.792Z" fill="#00DEFF"/>
<path d="M33.2089 0.5H3.98414C2.33044 0.52798 1.0005 1.8693 0.986816 3.52325V47.4508C1.00026 49.1093 2.32632 50.4582 3.98427 50.4999H33.1832C34.8814 50.5142 36.2697 49.1492 36.284 47.451V3.52325C36.2556 1.8452 34.8872 0.499758 33.2089 0.5ZM8.11858 9.75058V9.98314H7.75679V11.1459H6.25812V9.98314H5.76721V9.75058C4.61823 9.62498 3.73087 8.68288 3.67419 7.52833C3.68521 7.03862 3.85781 6.56624 4.1651 6.1847H4.32014L5.84473 4.27252C6.16764 3.94839 6.58273 3.73182 7.03331 3.65237C7.45264 3.63383 7.85562 3.81625 8.11858 4.14328L9.824 6.13298C9.90286 6.19415 9.96511 6.27409 10.0048 6.36554C10.1736 6.73121 10.2701 7.12607 10.2891 7.52833C10.2631 8.72491 9.31407 9.69656 8.11858 9.75058ZM21.581 30.655L21.5552 30.6292C20.9401 30.5972 20.332 30.4843 19.7465 30.2933V32.8772H21.0385V35.177H16.2581V32.8772H17.3692V30.2933C16.7869 30.4935 16.1761 30.5982 15.5604 30.6034C12.8152 30.7052 10.5045 28.5679 10.3924 25.823C10.4677 24.8657 10.8176 23.9505 11.4002 23.1873L11.6069 23.0065L17.1108 16.4174C17.9084 15.5611 19.2492 15.5136 20.1055 16.3112C20.1421 16.3454 20.1775 16.3808 20.2116 16.4174L25.6896 22.9032C26.3752 23.7073 26.775 24.7159 26.8266 25.7714C26.6741 28.5441 24.3576 30.7008 21.581 30.655ZM31.4001 45.797V46.0554H31.0383V47.2182H29.5397V46.0554H29.0488V45.7711C27.8878 45.691 26.9797 44.7383 26.9557 43.5748C26.9574 43.0989 27.1319 42.6397 27.4467 42.2827L28.9712 40.4223C29.2672 40.1408 29.6497 39.9677 30.0565 39.9313C30.4783 39.8993 30.8874 40.0843 31.1418 40.4223L32.873 42.3602C33.1143 42.7491 33.2481 43.1949 33.2606 43.6523C33.2375 44.7219 32.4556 45.6232 31.4001 45.797Z" fill="#00DEFF"/>
<path d="M49.7204 28.9237L45.7927 24.4276L38.5317 40.0865V40.6549L49.5653 30.9392C50.0978 30.3933 50.1631 29.5446 49.7204 28.9237Z" fill="#00DEFF"/>
</g>
</svg>
