<svg width="51" height="51" viewBox="0 0 51 51" fill="none" xmlns="http://www.w3.org/2000/svg">
<path d="M8.82812 41.9531C8.85938 41.9922 8.89062 42.0312 8.92969 42.0703C8.96094 42.1016 9 42.1328 9.03906 42.1562C9.03906 42.1562 9.04688 42.1719 9.05469 42.1719C13.2578 46.3203 19 48.8906 25.3438 48.9219C25.3672 48.9297 25.3906 48.9297 25.4219 48.9297C25.4453 48.9375 25.4766 48.9375 25.5 48.9375C25.5234 48.9375 25.5547 48.9375 25.5781 48.9297C25.6094 48.9297 25.6328 48.9297 25.6562 48.9219C32.0312 48.8906 37.8047 46.2891 42.0078 42.1172C42.0312 42.1016 42.0469 42.0859 42.0625 42.0703C42.1016 42.0312 42.1328 41.9922 42.1641 41.9531C46.3594 37.7188 48.9375 31.9062 48.9375 25.5V25.4922C48.9375 19.0859 46.3516 13.2734 42.1641 9.04687C42.1328 9.00781 42.1016 8.96875 42.0625 8.9375C42.0547 8.92188 42.0391 8.90625 42.0234 8.89844C42.0234 8.89323 42.0208 8.89062 42.0156 8.89062C37.7812 4.67187 31.9375 2.0625 25.5 2.0625C19.0625 2.0625 13.2891 4.64062 9.05469 8.82031C9.05469 8.82031 9.05469 8.82812 9.04687 8.82812C9.00781 8.85938 8.96875 8.89062 8.92969 8.92969C8.89062 8.96875 8.85938 9.00781 8.82812 9.04687C8.82812 9.05469 8.82031 9.05469 8.82031 9.05469C4.64062 13.2812 2.0625 19.0938 2.0625 25.4922V25.5C2.0625 31.9062 4.64062 37.7109 8.82031 41.9453C8.82031 41.9453 8.82812 41.9453 8.82812 41.9531ZM26.2812 47.3438V41.9531C30.1328 41.7812 33.7422 40.2891 36.5859 37.7031L40.3906 41.5C36.6641 44.9766 31.7188 47.1641 26.2812 47.3438ZM41.5 10.6016C44.9766 14.3281 47.1641 19.2734 47.3516 24.7109H41.9453C41.7734 20.8594 40.2812 17.25 37.6953 14.4062L41.5 10.6016ZM24.7188 3.64062V9.03906C20.875 9.21875 17.2656 10.7109 14.4062 13.3047L10.6016 9.5C14.3281 6.02344 19.2734 3.82812 24.7188 3.64062ZM14.9453 14.9531C17.7578 12.1562 21.4766 10.6094 25.4219 10.5859H25.4375C25.4609 10.5938 25.4766 10.5938 25.5 10.5938C25.5234 10.5938 25.5391 10.5938 25.5625 10.5859H25.5781C29.5156 10.6094 33.2188 12.1406 36.0078 14.9141L36.0156 14.9219C36.0234 14.9297 36.0391 14.9453 36.0469 14.9531C36.0547 14.9609 36.0703 14.9766 36.0703 14.9844C38.8672 17.7891 40.4062 21.5234 40.4062 25.4922C40.4062 29.4609 38.8594 33.2266 36.0469 36.0469L36.0391 36.0547C33.2422 38.8438 29.5312 40.3906 25.5781 40.4141H25.5625C25.5391 40.4062 25.5234 40.4062 25.5 40.4062C25.4766 40.4062 25.4609 40.4062 25.4375 40.4141H25.4219C21.4766 40.3906 17.7578 38.8438 14.9453 36.0469C12.1328 33.2266 10.5859 29.4766 10.5859 25.4922C10.5859 21.5078 12.1328 17.7656 14.9453 14.9531ZM9.04687 26.2734C9.21875 30.125 10.7109 33.7344 13.3047 36.5938L9.5 40.3984C6.02344 36.6719 3.82813 31.7266 3.64844 26.2734H9.04687Z" fill="#00DEFF"/>
<path d="M21.9922 32.0078C22.6797 32.0078 23.3672 31.8906 24.0156 31.6484L22.7109 35.2109C22.625 35.4531 22.6562 35.7187 22.8047 35.9297C22.9531 36.1328 23.1875 36.2578 23.4453 36.2578H27.5547C27.8125 36.2578 28.0547 36.1328 28.1953 35.9297C28.3438 35.7187 28.375 35.4531 28.2891 35.2109L26.9844 31.6484C29.0625 32.4141 31.4922 31.9609 33.1406 30.3047C35.3828 28.0703 35.4141 24.3984 33.2031 22.1172L26.0547 14.9688C25.7578 14.6719 25.2422 14.6719 24.9453 14.9688L17.8047 22.1172C17.7995 22.1172 17.7943 22.1198 17.7891 22.125C16.7344 23.2188 16.1484 24.6641 16.1484 26.1797C16.1562 27.7422 16.7578 29.2109 17.8594 30.3047C18.9922 31.4375 20.4922 32.0078 21.9922 32.0078Z" fill="#00DEFF"/>
</svg>
