<svg width="51" height="51" viewBox="0 0 51 51" fill="none" xmlns="http://www.w3.org/2000/svg">
<path d="M18.5401 22.2773L17.3946 21.1308L11.7637 15.5175C11.4926 15.2473 11.1255 15.0956 10.7427 15.0956C10.36 15.0956 9.99282 15.2473 9.72173 15.5175L4.10454 21.1171L2.95025 22.2675C2.1337 23.0847 1.64717 24.1743 1.58374 25.3278C1.52032 26.4813 1.88446 27.6177 2.60649 28.5195C3.32852 29.4213 4.35772 30.0252 5.49716 30.2157C6.63659 30.4061 7.80624 30.1697 8.78228 29.5517L8.1436 32.9931C8.11348 33.1552 8.11943 33.3219 8.16103 33.4814C8.20263 33.6409 8.27886 33.7892 8.38431 33.9159C8.48975 34.0426 8.62182 34.1446 8.77111 34.2144C8.9204 34.2843 9.08326 34.3204 9.2481 34.3202H12.2403C12.4051 34.3203 12.5678 34.284 12.717 34.2141C12.8663 34.1442 12.9982 34.0422 13.1036 33.9156C13.2091 33.7889 13.2853 33.6406 13.327 33.4812C13.3686 33.3218 13.3747 33.1551 13.3448 32.9931L12.7071 29.5322C13.6086 30.1031 14.6775 30.3506 15.7382 30.2342C16.799 30.1178 17.7887 29.6444 18.545 28.8915C18.9799 28.4575 19.3249 27.9418 19.5601 27.3741C19.7953 26.8064 19.9162 26.1979 19.9157 25.5834C19.9153 24.9689 19.7935 24.3605 19.5575 23.7932C19.3214 23.2259 18.9757 22.7107 18.5401 22.2773Z" fill="#00DEFF"/>
<path d="M17.705 3.7392C18.5886 2.85972 19.7845 2.36597 21.0312 2.36597C22.2779 2.36597 23.4738 2.85972 24.3574 3.7392L25.5107 4.88862L26.6572 3.74604C27.5389 2.86751 28.7328 2.37422 29.9775 2.37422C31.2221 2.37422 32.4161 2.86751 33.2978 3.74604C33.7335 4.17985 34.0792 4.69545 34.3151 5.26323C34.5511 5.83101 34.6725 6.4398 34.6725 7.05463C34.6725 7.66947 34.5511 8.27826 34.3151 8.84604C34.0792 9.41382 33.7335 9.92942 33.2978 10.3632L32.1513 11.5068L26.5204 17.1201C26.2491 17.3898 25.882 17.5412 25.4994 17.5412C25.1168 17.5412 24.7498 17.3898 24.4785 17.1201L18.8593 11.5205L17.705 10.3701C17.2683 9.93541 16.9218 9.41877 16.6853 8.84981C16.4489 8.28085 16.3271 7.67077 16.3271 7.05463C16.3271 6.43849 16.4489 5.82842 16.6853 5.25946C16.9218 4.6905 17.2683 4.17386 17.705 3.7392Z" fill="#00DEFF"/>
<path d="M34.2617 40.1816C34.3862 40.1083 34.4894 40.0037 34.5612 39.8783C34.6329 39.7528 34.6706 39.6108 34.6706 39.4663C34.6706 39.3218 34.6329 39.1798 34.5612 39.0543C34.4894 38.9288 34.3862 38.8243 34.2617 38.751C30.9389 36.7947 28.1692 34.0244 26.2138 30.7011C26.1402 30.5771 26.0356 30.4743 25.9103 30.4029C25.785 30.3315 25.6432 30.2939 25.499 30.2939C25.3547 30.2939 25.213 30.3315 25.0876 30.4029C24.9623 30.4743 24.8577 30.5771 24.7841 30.7011C22.8162 34.015 20.0489 36.7827 16.7353 38.751C16.611 38.8243 16.5079 38.9289 16.4364 39.0542C16.3648 39.1796 16.3271 39.3214 16.3271 39.4658C16.3271 39.6102 16.3648 39.752 16.4364 39.8774C16.5079 40.0027 16.611 40.1073 16.7353 40.1806C20.0593 42.1345 22.83 44.9042 24.7851 48.2275C24.8584 48.3521 24.963 48.4553 25.0884 48.527C25.2139 48.5988 25.3559 48.6365 25.5004 48.6365C25.6449 48.6365 25.787 48.5988 25.9124 48.527C26.0379 48.4553 26.1424 48.3521 26.2158 48.2275C28.1747 44.9096 30.942 42.1419 34.2597 40.1826L34.2617 40.1816Z" fill="#00DEFF"/>
<path d="M44.6524 21.2519H44.5479C44.7854 20.5342 44.849 19.7703 44.7336 19.0231C44.6181 18.276 44.3268 17.567 43.8837 16.9544C43.4406 16.3419 42.8584 15.8434 42.1849 15.4999C41.5114 15.1564 40.766 14.9778 40.01 14.9788C39.2539 14.9797 38.509 15.1603 37.8364 15.5055C37.1638 15.8507 36.5828 16.3508 36.1413 16.9644C35.6998 17.5781 35.4104 18.2879 35.2968 19.0354C35.1833 19.7828 35.2489 20.5465 35.4883 21.2636C34.7992 21.3167 34.1298 21.5188 33.5265 21.8559C32.9232 22.1931 32.4002 22.6572 31.9939 23.2163C31.5875 23.7753 31.3074 24.4159 31.1728 25.0939C31.0383 25.7718 31.0526 26.4708 31.2147 27.1427C31.3769 27.8146 31.683 28.4432 32.1119 28.9852C32.5407 29.5271 33.0822 29.9695 33.6988 30.2817C34.3155 30.5939 34.9925 30.7684 35.6832 30.7933C36.3739 30.8182 37.0618 30.6928 37.6992 30.4257L37.2412 32.8964C37.2062 33.0842 37.213 33.2773 37.2611 33.4621C37.3092 33.6469 37.3973 33.8189 37.5194 33.9658C37.6414 34.1127 37.7942 34.231 37.9671 34.3121C38.14 34.3933 38.3286 34.4354 38.5195 34.4355H41.9873C42.1783 34.4354 42.367 34.3933 42.5398 34.3121C42.7127 34.2309 42.8657 34.1127 42.9877 33.9659C43.1098 33.819 43.1981 33.647 43.2463 33.4622C43.2945 33.2774 43.3014 33.0842 43.2666 32.8964L42.8076 30.4257C43.4592 30.6972 44.1629 30.8208 44.868 30.7876C45.573 30.7544 46.262 30.5653 46.8852 30.2338C47.5084 29.9023 48.0503 29.4368 48.4719 28.8707C48.8935 28.3045 49.1844 27.652 49.3234 26.9599C49.4625 26.2679 49.4464 25.5536 49.2762 24.8686C49.106 24.1835 48.786 23.5448 48.3392 22.9983C47.8925 22.4518 47.3301 22.0112 46.6925 21.7082C46.055 21.4052 45.3582 21.2473 44.6524 21.246V21.2519Z" fill="#00DEFF"/>
</svg>
